<svg width="250" height="250" viewBox="0 0 250 250" fill="none" xmlns="http://www.w3.org/2000/svg">
<path d="M22.0655 170.474C31.3016 153.031 54.1513 29.9183 69.9505 24.1743C85.7497 18.4302 125.966 156.598 132.669 156.598C137.456 158.034 207.356 86.4018 218.368 85.9231C229.379 85.4444 226.977 162.815 230.328 171.431C233.679 180.047 224.936 182.262 219.795 185.791C219.795 161.858 213.093 189.142 205.911 173.825C208.305 164.73 208.313 127.399 208.313 117.037C183.896 137.62 149.827 176.218 149.417 179.09C148.472 185.701 132.625 174.444 132.658 188.092C132.665 188.277 132.669 188.468 132.669 188.664C132.662 188.468 132.659 188.278 132.658 188.092C132.08 172.363 107.347 191.334 112.552 174.303C118.297 160.9 81.4323 80.0047 76.166 68.0379C73.2934 58.4645 46.4825 165.209 47.44 176.218C47.0598 179.894 45.8401 183.369 44.2344 186.749L21.2922 185.313C19.6084 180.652 19.2285 175.832 22.0655 170.474Z" fill="#80E614"/>
<path d="M47.4942 197.758C47.4942 207.831 39.3265 216 29.2471 216C19.1677 216 11 207.831 11 197.758C11 187.685 19.1677 179.517 29.2471 179.517C39.3265 179.517 47.4942 187.685 47.4942 197.758Z" stroke="#80E614" stroke-width="20"/>
<path d="M145.162 197.758C145.162 207.831 136.994 216 126.915 216C116.836 216 108.668 207.831 108.668 197.758C108.668 187.685 116.836 179.517 126.915 179.517C136.994 179.517 145.162 187.685 145.162 197.758Z" stroke="#80E614" stroke-width="20"/>
<path d="M239 197.758C239 207.831 230.832 216 220.753 216C210.674 216 202.506 207.831 202.506 197.758C202.506 187.685 210.674 179.517 220.753 179.517C230.832 179.517 239 187.685 239 197.758Z" stroke="#80E614" stroke-width="20"/>
</svg>
